<?xml version="1.0" encoding="utf-8"?>
<!-- Generator: Adobe Illustrator 27.5.0, SVG Export Plug-In . SVG Version: 6.00 Build 0)  -->
<svg version="1.1" id="레이어_1" xmlns="http://www.w3.org/2000/svg" xmlns:xlink="http://www.w3.org/1999/xlink" x="0px"
	 y="0px" viewBox="0 0 180 36" style="enable-background:new 0 0 180 36;" xml:space="preserve">
<style type="text/css">
	.st0{fill:#656464;}
	.st1{fill:#7D7D7D;}
	.st2{fill:#006249;}
	.st3{fill:#538E32;}
</style>
<g>
	<g>
		<g>
			<path class="st0" d="M18,35.9c-9.9,0-17.9-8-17.9-17.9c0-9.9,8-17.9,17.9-17.9c9.9,0,17.9,8,17.9,17.9
				C35.9,27.9,27.9,35.9,18,35.9z M18,1.1C8.7,1.1,1.1,8.7,1.1,18c0,9.3,7.6,16.9,16.9,16.9c9.3,0,16.9-7.6,16.9-16.9
				C34.9,8.7,27.3,1.1,18,1.1z"/>
		</g>
		<g>
			<path class="st1" d="M18,33.7c-8.7,0-15.7-7-15.7-15.7c0-8.7,7-15.7,15.7-15.7c8.7,0,15.7,7,15.7,15.7
				C33.7,26.7,26.7,33.7,18,33.7z M18,2.5C9.5,2.5,2.6,9.5,2.6,18c0,8.5,6.9,15.4,15.4,15.4c8.5,0,15.4-6.9,15.4-15.4
				C33.5,9.5,26.5,2.5,18,2.5z"/>
		</g>
		<g>
			<path class="st2" d="M21.4,24.7c-0.3,0.2-0.6,0.4-0.9,0.6l-0.7,0.3h0.8c0.9,0,2.1-0.3,2.6-0.8l0.1-0.1v-6.2h-1.8V24.7z"/>
			<path class="st3" d="M24.8,10.9l0.1,0.1l1.3-1.1l-0.2-0.1c-1.3-1.2-2.9-1.9-4.9-2.1l-1.1-0.1l1,0.5C22.6,8.7,23.8,9.7,24.8,10.9z
				"/>
			<path class="st2" d="M12.2,24.3c-1.2-1.9-1.9-4-1.9-6.3c0.1-3,1.5-5.6,3.7-7.2c1.2-0.9,2.4-1.3,3.8-1.3c1.9,0,3.5,0.9,5,2.9
				l0.1,0.1l1.4-1.2l-0.1-0.1c-2.1-2.3-4.3-3.4-6.5-3.4c-1.8,0-3.4,0.5-4.8,1.6c-1.4,1-2.6,2.3-3.3,3.8c-0.8,1.6-1.2,3.1-1.2,4.8
				c0,3.5,1.4,6.7,3.9,8.6c1.3,1,2.8,1.5,4.4,1.5h1.4l-1.4-0.3C15,27.3,13.5,26.2,12.2,24.3z"/>
			<path class="st3" d="M24.1,25c-1,0.8-2.1,1.3-3.6,1.3c-1.4,0-2.6-0.4-3.8-1.2c-1.2-0.8-2-1.9-2.6-3.1c-0.6-1.3-0.9-2.6-0.9-3.9
				c0-1.6,0.4-3.1,1.3-4.5c0.9-1.5,1.8-2.3,3.2-2.9l1.3-0.5l-1.4,0.2c-1.9,0.3-3.2,1.1-4.4,2.5c-1.2,1.5-1.8,3.2-1.8,5.2
				c0,2.6,0.9,4.9,2.6,6.8c1.8,2,3.9,3,6.4,3c1,0,2-0.2,3-0.6c1-0.4,1.8-0.9,2.3-1.6l0,0v-7.1h-1.8L24.1,25z"/>
		</g>
	</g>
	<g>
		<g>
			<path class="st3" d="M54.6,21.4c-0.1,0.1-0.3,0.3-0.6,0.4c-0.3,0.1-0.5,0.2-0.9,0.3c-0.3,0.1-0.6,0.2-1,0.2
				c-0.3,0.1-0.7,0.1-1,0.1c-0.8,0-1.6-0.1-2.2-0.4c-0.7-0.3-1.2-0.6-1.7-1c-0.5-0.4-0.8-1-1.1-1.6c-0.3-0.6-0.4-1.3-0.4-2
				c0-0.9,0.1-1.7,0.4-2.4c0.3-0.7,0.7-1.3,1.2-1.7c0.5-0.5,1-0.8,1.7-1c0.6-0.2,1.3-0.4,2-0.4c0.6,0,1.2,0.1,1.7,0.2
				c0.5,0.1,1,0.3,1.4,0.5l-0.5,1.5c-0.2-0.1-0.4-0.2-0.7-0.3c-0.3-0.1-0.6-0.2-0.9-0.2c-0.3-0.1-0.6-0.1-0.8-0.1
				c-0.6,0-1.1,0.1-1.6,0.2c-0.5,0.2-0.9,0.4-1.2,0.7c-0.3,0.3-0.6,0.7-0.8,1.2c-0.2,0.5-0.3,1-0.3,1.6c0,0.5,0.1,1,0.3,1.4
				c0.2,0.4,0.4,0.8,0.8,1.1c0.3,0.3,0.7,0.5,1.2,0.7c0.5,0.2,1,0.2,1.5,0.2c0.3,0,0.6,0,0.9-0.1c0.3-0.1,0.6-0.1,0.8-0.3v-1.7H51
				v-1.6h3.6V21.4z"/>
			<path class="st3" d="M62,12.1c0.6,0,1.1,0.1,1.5,0.2c0.5,0.1,0.9,0.4,1.2,0.6c0.3,0.3,0.6,0.6,0.8,1c0.2,0.4,0.3,0.9,0.3,1.4
				c0,0.4-0.1,0.8-0.2,1.2c-0.1,0.4-0.3,0.8-0.6,1.1c-0.3,0.3-0.6,0.6-1.1,0.8c-0.5,0.2-1,0.3-1.7,0.3h-1.5v3.6h-1.6V12.1H62z
				 M62.2,17.2c0.4,0,0.7-0.1,0.9-0.2c0.2-0.1,0.4-0.3,0.6-0.4c0.1-0.2,0.2-0.4,0.3-0.6c0.1-0.2,0.1-0.4,0.1-0.6
				c0-0.2,0-0.4-0.1-0.6c-0.1-0.2-0.2-0.4-0.3-0.6c-0.1-0.2-0.3-0.3-0.6-0.5c-0.2-0.1-0.5-0.2-0.9-0.2h-1.5v3.5H62.2z M64,18.2
				l2.6,4.2h-1.9L62,18.2L64,18.2z"/>
			<path class="st3" d="M70.1,12.1h6.8v1.6h-5.2v2.7h4.6V18h-4.6v2.8h5.3v1.6h-7V12.1z"/>
			<path class="st3" d="M81.1,12.1h6.8v1.6h-5.2v2.7h4.6V18h-4.6v2.8h5.3v1.6h-7V12.1z"/>
			<path class="st3" d="M101,22.7l-7.9-7.6l0.5,0.2l0,7.1H92V11.8h0.1l7.7,7.6l-0.4-0.1l0-7.2h1.6L101,22.7L101,22.7z"/>
			<g>
				<path class="st0" d="M114.6,18.8h1.9v1.7c-0.2,0.1-0.5,0.2-0.8,0.3c-0.3,0.1-0.6,0.1-0.9,0.1c-0.6,0-1.1-0.1-1.5-0.2
					c-0.5-0.2-0.9-0.4-1.2-0.7c-0.3-0.3-0.6-0.7-0.8-1.1c-0.2-0.4-0.3-0.9-0.3-1.4c0-0.6,0.1-1.1,0.3-1.6c0.2-0.5,0.4-0.8,0.8-1.2
					c0.3-0.3,0.7-0.6,1.2-0.7c0.5-0.2,1-0.2,1.6-0.2c0.2,0,0.5,0,0.8,0.1c0.3,0.1,0.6,0.1,0.9,0.2c0.3,0.1,0.5,0.2,0.7,0.3l0.5-1.5
					c-0.4-0.2-0.8-0.4-1.4-0.5c-0.5-0.1-1.1-0.2-1.7-0.2c-0.7,0-1.4,0.1-2,0.4c-0.6,0.2-1.2,0.6-1.7,1c-0.5,0.5-0.9,1-1.2,1.7
					c-0.3,0.7-0.4,1.5-0.4,2.4c0,0.7,0.1,1.4,0.4,2c0.3,0.6,0.6,1.1,1.1,1.6c0.5,0.4,1,0.8,1.7,1c0.7,0.3,1.4,0.4,2.2,0.4
					c0.3,0,0.6,0,1-0.1c0.3-0.1,0.7-0.1,1-0.2c0.3-0.1,0.6-0.2,0.9-0.3c0.3-0.1,0.5-0.2,0.6-0.4v-4.2h-3.6V18.8z"/>
				<path class="st0" d="M124.9,11.7l-4.5,10.7h1.6l1-2.4h3.7l0.9,2.4h1.9L124.9,11.7L124.9,11.7z M123.5,18.5l1.3-3.2l1.3,3.2
					H123.5z"/>
				<polygon class="st0" points="133.8,12.1 132.2,12.1 132.2,22.3 138.9,22.3 138.9,20.8 133.8,20.8 				"/>
				<polygon class="st0" points="143.6,12.1 142,12.1 142,22.3 148.7,22.3 148.7,20.8 143.6,20.8 				"/>
				<polygon class="st0" points="153.2,18 157.8,18 157.8,16.4 153.2,16.4 153.2,13.7 158.4,13.7 158.4,12.1 151.6,12.1 151.6,22.3 
					158.6,22.3 158.6,20.8 153.2,20.8 				"/>
				<path class="st0" d="M167.9,17.7c0.3-0.3,0.5-0.7,0.6-1.1c0.1-0.4,0.2-0.8,0.2-1.2c0-0.5-0.1-1-0.3-1.4c-0.2-0.4-0.4-0.8-0.8-1
					c-0.3-0.3-0.7-0.5-1.2-0.6c-0.5-0.1-1-0.2-1.5-0.2H162v10.2h1.6v-3.6h1.5c0.1,0,0.1,0,0.2,0l2.3,3.6h1.9l-2.5-4
					C167.4,18.2,167.7,18,167.9,17.7z M163.7,13.7h1.5c0.4,0,0.7,0.1,0.9,0.2c0.2,0.1,0.4,0.3,0.6,0.5c0.1,0.2,0.2,0.4,0.3,0.6
					c0.1,0.2,0.1,0.4,0.1,0.6c0,0.2,0,0.4-0.1,0.6c-0.1,0.2-0.2,0.4-0.3,0.6c-0.1,0.2-0.3,0.3-0.6,0.4c-0.2,0.1-0.5,0.2-0.9,0.2
					h-1.5V13.7z"/>
				<polygon class="st0" points="178,12.1 175.4,17.2 172.7,12.1 170.7,12.1 174.5,19 174.5,22.3 176.1,22.3 176.1,19 180,12.1 				
					"/>
			</g>
		</g>
		<g>
			<path class="st0" d="M63.6,28.1c-0.2-0.1-0.5-0.2-0.9-0.2h-1.2v4.6h0.6v-1.7h0.7c0.3,0,0.5,0,0.7-0.1c0.2-0.1,0.4-0.2,0.5-0.3
				c0.1-0.1,0.2-0.3,0.3-0.5c0.1-0.2,0.1-0.4,0.1-0.5c0-0.3-0.1-0.6-0.2-0.8C64,28.4,63.9,28.2,63.6,28.1z M63.7,29.6
				c0,0.1-0.1,0.2-0.1,0.3c-0.1,0.1-0.2,0.2-0.3,0.2c-0.1,0.1-0.3,0.1-0.4,0.1h-0.7v-1.7h0.7c0.2,0,0.3,0,0.4,0.1
				c0.1,0.1,0.2,0.1,0.3,0.2c0.1,0.1,0.1,0.2,0.1,0.3c0,0.1,0,0.2,0,0.3C63.7,29.5,63.7,29.5,63.7,29.6z"/>
			<path class="st0" d="M68.2,30.4c0.1-0.1,0.2-0.3,0.3-0.5c0.1-0.2,0.1-0.4,0.1-0.5c0-0.2,0-0.4-0.1-0.6c-0.1-0.2-0.2-0.3-0.3-0.4
				c-0.1-0.1-0.3-0.2-0.5-0.3c-0.2-0.1-0.4-0.1-0.6-0.1h-1.2v4.6h0.6v-1.7H67c0.1,0,0.1,0,0.1,0l1.1,1.7h0.7l-1.1-1.8
				C68,30.6,68.1,30.5,68.2,30.4z M67,30.2h-0.7v-1.7H67c0.2,0,0.3,0,0.4,0.1c0.1,0.1,0.2,0.1,0.3,0.2c0.1,0.1,0.1,0.2,0.2,0.3
				c0,0.1,0,0.2,0,0.3c0,0.1,0,0.2,0,0.3c0,0.1-0.1,0.2-0.1,0.3c-0.1,0.1-0.2,0.2-0.3,0.2C67.3,30.2,67.2,30.2,67,30.2z"/>
			<polygon class="st0" points="70.9,30.5 73,30.5 73,29.9 70.9,29.9 70.9,28.5 73.3,28.5 73.3,27.9 70.3,27.9 70.3,32.5 73.4,32.5 
				73.4,31.9 70.9,31.9 			"/>
			<polygon class="st0" points="77.1,31 74.8,27.8 74.8,27.8 74.8,32.5 75.4,32.5 75.4,29.6 77.1,31.9 77.1,31.9 78.8,29.6 
				78.8,32.5 79.4,32.5 79.4,27.8 79.4,27.8 			"/>
			<rect x="81.1" y="27.9" class="st0" width="0.6" height="4.6"/>
			<path class="st0" d="M86.2,30.9c0,0.2,0,0.4-0.1,0.6c-0.1,0.2-0.2,0.3-0.4,0.4c-0.2,0.1-0.4,0.1-0.6,0.1c-0.2,0-0.4,0-0.6-0.1
				c-0.2-0.1-0.3-0.2-0.4-0.4c-0.1-0.2-0.1-0.3-0.1-0.6v-3h-0.6v3c0,0.3,0.1,0.6,0.2,0.9c0.2,0.2,0.4,0.4,0.6,0.6
				c0.3,0.1,0.5,0.2,0.9,0.2c0.3,0,0.6-0.1,0.9-0.2c0.3-0.1,0.5-0.3,0.6-0.6c0.2-0.2,0.2-0.5,0.2-0.9v-3h-0.6V30.9z"/>
			<polygon class="st0" points="90.8,31 88.5,27.8 88.5,27.8 88.5,32.5 89.1,32.5 89.1,29.6 90.7,31.9 90.8,31.9 92.4,29.6 
				92.4,32.5 93.1,32.5 93.1,27.8 93,27.8 			"/>
			<path class="st0" d="M99.3,30.9h0.9v0.9c-0.1,0.1-0.2,0.1-0.4,0.1c-0.2,0-0.3,0-0.5,0c-0.3,0-0.5,0-0.7-0.1
				c-0.2-0.1-0.4-0.2-0.6-0.3c-0.2-0.1-0.3-0.3-0.4-0.5c-0.1-0.2-0.1-0.4-0.1-0.7c0-0.3,0-0.5,0.1-0.7c0.1-0.2,0.2-0.4,0.4-0.6
				c0.2-0.2,0.3-0.3,0.6-0.4c0.2-0.1,0.5-0.1,0.7-0.1c0.1,0,0.2,0,0.4,0c0.1,0,0.3,0.1,0.4,0.1c0.1,0,0.2,0.1,0.3,0.1l0.2-0.6
				c-0.2-0.1-0.4-0.2-0.6-0.2c-0.2-0.1-0.5-0.1-0.7-0.1c-0.3,0-0.6,0.1-0.9,0.2c-0.3,0.1-0.5,0.3-0.8,0.5c-0.2,0.2-0.4,0.5-0.5,0.8
				c-0.1,0.3-0.2,0.6-0.2,1c0,0.3,0.1,0.6,0.2,0.9c0.1,0.3,0.3,0.5,0.5,0.7c0.2,0.2,0.5,0.4,0.8,0.5c0.3,0.1,0.6,0.2,1,0.2
				c0.1,0,0.3,0,0.4,0c0.1,0,0.3-0.1,0.4-0.1c0.1,0,0.3-0.1,0.4-0.1c0.1-0.1,0.2-0.1,0.3-0.2v-1.8h-1.5V30.9z"/>
			<path class="st0" d="M106.1,28.6c-0.2-0.2-0.5-0.4-0.7-0.5c-0.3-0.1-0.6-0.2-0.9-0.2c-0.3,0-0.6,0.1-0.9,0.2
				c-0.3,0.1-0.5,0.3-0.7,0.5c-0.2,0.2-0.4,0.5-0.5,0.7c-0.1,0.3-0.2,0.6-0.2,0.9c0,0.3,0.1,0.6,0.2,0.9c0.1,0.3,0.3,0.5,0.5,0.7
				c0.2,0.2,0.5,0.4,0.7,0.5c0.3,0.1,0.6,0.2,0.9,0.2c0.3,0,0.6-0.1,0.9-0.2c0.3-0.1,0.5-0.3,0.7-0.5c0.2-0.2,0.4-0.5,0.5-0.7
				c0.1-0.3,0.2-0.6,0.2-0.9c0-0.3-0.1-0.6-0.2-0.9C106.4,29.1,106.3,28.8,106.1,28.6z M106,30.9c-0.1,0.2-0.2,0.4-0.4,0.6
				c-0.2,0.2-0.3,0.3-0.5,0.4c-0.2,0.1-0.4,0.1-0.7,0.1c-0.2,0-0.5,0-0.7-0.1c-0.2-0.1-0.4-0.2-0.5-0.4c-0.2-0.2-0.3-0.3-0.4-0.6
				c-0.1-0.2-0.1-0.4-0.1-0.7c0-0.2,0-0.5,0.1-0.7c0.1-0.2,0.2-0.4,0.4-0.6c0.2-0.2,0.3-0.3,0.5-0.4c0.2-0.1,0.4-0.1,0.7-0.1
				c0.2,0,0.5,0,0.7,0.1c0.2,0.1,0.4,0.2,0.5,0.4c0.2,0.2,0.3,0.3,0.4,0.6c0.1,0.2,0.1,0.4,0.1,0.7C106.1,30.5,106.1,30.7,106,30.9z
				"/>
			<polygon class="st0" points="108.8,27.9 108.2,27.9 108.2,32.5 111.1,32.5 111.1,31.9 108.8,31.9 			"/>
			<polygon class="st0" points="112.5,32.5 113.2,32.5 113.2,30.6 115,30.6 115,30 113.2,30 113.2,28.5 115.3,28.5 115.3,27.9 
				112.5,27.9 			"/>
			<polygon class="st0" points="121.4,31 119.1,27.8 119.1,27.8 119.1,32.5 119.7,32.5 119.7,29.6 121.3,31.9 121.3,31.9 123,29.6 
				123,32.5 123.6,32.5 123.6,27.8 123.6,27.8 			"/>
			<polygon class="st0" points="126,30.5 128.1,30.5 128.1,29.9 126,29.9 126,28.5 128.4,28.5 128.4,27.9 125.4,27.9 125.4,32.5 
				128.4,32.5 128.4,31.9 126,31.9 			"/>
			<polygon class="st0" points="132.2,31 129.9,27.8 129.9,27.8 129.9,32.5 130.5,32.5 130.5,29.6 132.2,31.9 132.2,31.9 
				133.9,29.6 133.9,32.5 134.5,32.5 134.5,27.8 134.5,27.8 			"/>
			<path class="st0" d="M138.3,30.2C138.3,30.2,138.2,30.2,138.3,30.2C138.2,30.1,138.2,30.1,138.3,30.2c0.1-0.1,0.3-0.3,0.4-0.4
				c0.1-0.2,0.2-0.4,0.2-0.6c0-0.4-0.1-0.7-0.4-0.9c-0.3-0.2-0.6-0.3-1.1-0.3h-1.2v4.6h1.4c0.2,0,0.4,0,0.6-0.1
				c0.2,0,0.3-0.1,0.5-0.2c0.1-0.1,0.3-0.2,0.3-0.4c0.1-0.2,0.1-0.4,0.1-0.6c0-0.2-0.1-0.5-0.2-0.6
				C138.7,30.4,138.5,30.3,138.3,30.2z M136.8,28.5h0.6c0.2,0,0.4,0.1,0.6,0.2c0.1,0.1,0.2,0.3,0.2,0.5c0,0.2-0.1,0.4-0.2,0.5
				c-0.1,0.1-0.3,0.2-0.6,0.2h-0.7V28.5z M138.3,31.6c-0.1,0.1-0.2,0.2-0.3,0.2c-0.1,0.1-0.3,0.1-0.5,0.1h-0.7v-1.4h0.7
				c0.2,0,0.3,0,0.5,0.1c0.1,0,0.3,0.1,0.4,0.2c0.1,0.1,0.1,0.2,0.1,0.4C138.4,31.4,138.4,31.5,138.3,31.6z"/>
			<polygon class="st0" points="141.1,30.5 143.2,30.5 143.2,29.9 141.1,29.9 141.1,28.5 143.5,28.5 143.5,27.9 140.5,27.9 
				140.5,32.5 143.6,32.5 143.6,31.9 141.1,31.9 			"/>
			<path class="st0" d="M147.5,30.4c0.1-0.1,0.2-0.3,0.3-0.5c0.1-0.2,0.1-0.4,0.1-0.5c0-0.2,0-0.4-0.1-0.6c-0.1-0.2-0.2-0.3-0.3-0.4
				c-0.1-0.1-0.3-0.2-0.5-0.3c-0.2-0.1-0.4-0.1-0.6-0.1h-1.2v4.6h0.6v-1.7h0.7c0.1,0,0.1,0,0.1,0l1.1,1.7h0.7l-1.1-1.8
				C147.3,30.6,147.4,30.5,147.5,30.4z M146.3,30.2h-0.7v-1.7h0.7c0.2,0,0.3,0,0.4,0.1c0.1,0.1,0.2,0.1,0.3,0.2
				c0.1,0.1,0.1,0.2,0.2,0.3c0,0.1,0,0.2,0,0.3c0,0.1,0,0.2,0,0.3c0,0.1-0.1,0.2-0.1,0.3c-0.1,0.1-0.2,0.2-0.3,0.2
				C146.7,30.2,146.5,30.2,146.3,30.2z"/>
			<path class="st0" d="M151.9,30.3c-0.1-0.1-0.2-0.2-0.4-0.3c-0.1-0.1-0.3-0.1-0.4-0.2c-0.2-0.1-0.3-0.1-0.5-0.2
				c-0.2-0.1-0.3-0.2-0.4-0.3c-0.1-0.1-0.1-0.2-0.1-0.4c0-0.2,0.1-0.3,0.2-0.5c0.1-0.1,0.3-0.2,0.6-0.2c0.2,0,0.4,0,0.5,0.1
				c0.2,0.1,0.4,0.1,0.5,0.2l0.2-0.5c-0.2-0.1-0.4-0.2-0.6-0.3c-0.2-0.1-0.5-0.1-0.8-0.1c-0.3,0-0.5,0.1-0.7,0.2
				c-0.2,0.1-0.4,0.2-0.5,0.4c-0.1,0.2-0.2,0.4-0.2,0.6c0,0.2,0,0.4,0.1,0.5c0.1,0.1,0.2,0.3,0.3,0.4c0.1,0.1,0.3,0.2,0.4,0.2
				c0.1,0.1,0.3,0.1,0.4,0.2c0.2,0.1,0.3,0.1,0.4,0.2c0.1,0.1,0.2,0.2,0.3,0.3c0.1,0.1,0.1,0.2,0.1,0.4c0,0.2,0,0.3-0.1,0.4
				c-0.1,0.1-0.2,0.2-0.4,0.2c-0.1,0.1-0.3,0.1-0.4,0.1c-0.1,0-0.3,0-0.4-0.1c-0.1,0-0.3-0.1-0.4-0.2c-0.1-0.1-0.2-0.1-0.3-0.2
				l-0.3,0.5c0.1,0.1,0.3,0.2,0.4,0.2c0.2,0.1,0.3,0.1,0.5,0.2c0.2,0,0.4,0.1,0.6,0.1c0.3,0,0.6-0.1,0.8-0.2
				c0.2-0.1,0.4-0.3,0.5-0.5c0.1-0.2,0.2-0.4,0.2-0.7c0-0.2,0-0.4-0.1-0.6C152.1,30.6,152,30.4,151.9,30.3z"/>
			<polygon class="st0" points="156.7,29.9 154.3,29.9 154.3,27.9 153.7,27.9 153.7,32.5 154.3,32.5 154.3,30.5 156.7,30.5 
				156.7,32.5 157.4,32.5 157.4,27.9 156.7,27.9 			"/>
			<rect x="159.1" y="27.9" class="st0" width="0.6" height="4.6"/>
			<path class="st0" d="M164,28.6c-0.1-0.2-0.3-0.4-0.5-0.5c-0.2-0.1-0.5-0.2-0.9-0.2h-1.2v4.6h0.6v-1.7h0.7c0.3,0,0.5,0,0.7-0.1
				c0.2-0.1,0.4-0.2,0.5-0.3c0.1-0.1,0.2-0.3,0.3-0.5c0.1-0.2,0.1-0.4,0.1-0.5C164.2,29.1,164.2,28.8,164,28.6z M163.6,29.6
				c0,0.1-0.1,0.2-0.1,0.3c-0.1,0.1-0.2,0.2-0.3,0.2c-0.1,0.1-0.3,0.1-0.4,0.1H162v-1.7h0.7c0.2,0,0.3,0,0.4,0.1
				c0.1,0.1,0.2,0.1,0.3,0.2c0.1,0.1,0.1,0.2,0.1,0.3c0,0.1,0,0.2,0,0.3C163.6,29.5,163.6,29.5,163.6,29.6z"/>
		</g>
	</g>
</g>
</svg>
