<?xml version="1.0" encoding="utf-8"?>
<!-- Generator: Adobe Illustrator 27.5.0, SVG Export Plug-In . SVG Version: 6.00 Build 0)  -->
<svg version="1.1" id="레이어_1" xmlns="http://www.w3.org/2000/svg" xmlns:xlink="http://www.w3.org/1999/xlink" x="0px"
	 y="0px" viewBox="0 0 300 203" style="enable-background:new 0 0 300 203;" xml:space="preserve">
<style type="text/css">
	.st0{fill:#538E32;}
	.st1{fill:#656464;}
	.st2{fill:#7D7D7D;}
	.st3{fill:#006249;}
</style>
<g>
	<g>
		<g>
			<path class="st0" d="M21.2,173c-0.3,0.3-0.7,0.6-1.3,0.8c-0.6,0.3-1.2,0.5-1.9,0.7c-0.7,0.2-1.4,0.4-2.2,0.5
				c-0.7,0.1-1.5,0.2-2.1,0.2c-1.8,0-3.5-0.3-4.9-0.8c-1.5-0.6-2.7-1.3-3.7-2.3c-1-1-1.8-2.1-2.4-3.5c-0.6-1.3-0.8-2.8-0.8-4.4
				c0-2,0.3-3.7,0.9-5.2c0.6-1.5,1.5-2.8,2.5-3.8c1.1-1,2.3-1.8,3.7-2.3c1.4-0.5,2.9-0.8,4.4-0.8c1.4,0,2.6,0.2,3.8,0.5
				c1.2,0.3,2.2,0.7,3,1.2l-1.2,3.4c-0.4-0.2-0.9-0.5-1.5-0.7c-0.6-0.2-1.3-0.4-1.9-0.5c-0.6-0.1-1.2-0.2-1.7-0.2
				c-1.3,0-2.5,0.2-3.5,0.5c-1,0.4-1.9,0.9-2.6,1.6c-0.7,0.7-1.3,1.6-1.7,2.6c-0.4,1-0.6,2.1-0.6,3.4c0,1.2,0.2,2.2,0.6,3.2
				c0.4,1,1,1.8,1.7,2.5c0.7,0.7,1.6,1.2,2.6,1.6c1,0.4,2.1,0.5,3.4,0.5c0.7,0,1.4-0.1,2.1-0.2c0.7-0.1,1.2-0.3,1.7-0.6v-3.8h-4.3
				v-3.5h7.9V173z"/>
			<path class="st0" d="M37.4,152.5c1.2,0,2.4,0.2,3.4,0.5c1,0.3,1.9,0.8,2.6,1.4c0.7,0.6,1.3,1.4,1.7,2.3c0.4,0.9,0.6,1.9,0.6,3.1
				c0,0.9-0.1,1.8-0.4,2.7c-0.3,0.9-0.7,1.7-1.3,2.4c-0.6,0.7-1.4,1.3-2.4,1.7c-1,0.4-2.2,0.7-3.7,0.7h-3.3v7.9h-3.6v-22.6H37.4z
				 M37.9,163.7c0.8,0,1.5-0.1,2-0.4c0.5-0.3,1-0.6,1.3-1c0.3-0.4,0.5-0.8,0.7-1.3c0.1-0.4,0.2-0.9,0.2-1.3c0-0.4-0.1-0.8-0.2-1.2
				c-0.1-0.4-0.3-0.9-0.6-1.3c-0.3-0.4-0.7-0.7-1.2-1c-0.5-0.3-1.2-0.4-2-0.4h-3.4v7.8H37.9z M41.9,165.9l5.8,9.2h-4.2l-5.9-9.1
				L41.9,165.9z"/>
			<path class="st0" d="M55.3,152.5h15v3.5H59v6h10.1v3.5H59v6.1h11.8v3.5H55.3V152.5z"/>
			<path class="st0" d="M79.7,152.5h15v3.5H83.3v6h10.1v3.5H83.3v6.1h11.8v3.5H79.7V152.5z"/>
			<path class="st0" d="M123.6,175.9l-17.4-16.8l1.1,0.4l0.1,15.6h-3.7v-23.4h0.2l17.1,16.8l-0.8-0.2l-0.1-15.8h3.6L123.6,175.9
				L123.6,175.9z"/>
			<g>
				<path class="st1" d="M153.7,167.2h4.3v3.8c-0.5,0.3-1,0.5-1.7,0.6c-0.7,0.1-1.3,0.2-2.1,0.2c-1.2,0-2.3-0.2-3.4-0.5
					c-1-0.4-1.9-0.9-2.6-1.6c-0.7-0.7-1.3-1.5-1.7-2.5c-0.4-1-0.6-2-0.6-3.2c0-1.3,0.2-2.4,0.6-3.4c0.4-1,0.9-1.9,1.7-2.6
					c0.7-0.7,1.6-1.2,2.6-1.6c1-0.4,2.2-0.5,3.5-0.5c0.5,0,1.1,0.1,1.7,0.2c0.6,0.1,1.3,0.3,1.9,0.5c0.6,0.2,1.1,0.4,1.5,0.7
					l1.2-3.4c-0.8-0.5-1.8-0.9-3-1.2c-1.2-0.3-2.4-0.5-3.8-0.5c-1.6,0-3,0.3-4.4,0.8c-1.4,0.5-2.6,1.3-3.7,2.3
					c-1.1,1-1.9,2.3-2.5,3.8c-0.6,1.5-0.9,3.2-0.9,5.2c0,1.6,0.3,3,0.8,4.4c0.6,1.3,1.4,2.5,2.4,3.5c1,1,2.3,1.8,3.7,2.3
					c1.5,0.6,3.1,0.8,4.9,0.8c0.7,0,1.4-0.1,2.1-0.2c0.7-0.1,1.5-0.3,2.2-0.5c0.7-0.2,1.3-0.5,1.9-0.7c0.6-0.3,1-0.5,1.3-0.8v-9.3
					h-7.9V167.2z"/>
				<path class="st1" d="M176.3,151.5l-10,23.5h3.5l2.2-5.3h8.3l2.1,5.3h4.2l-10-23.5H176.3z M173.3,166.7l2.9-7.2l2.8,7.2H173.3z"
					/>
				<polygon class="st1" points="196.2,152.5 192.5,152.5 192.5,175.1 207.3,175.1 207.3,171.6 196.2,171.6 				"/>
				<polygon class="st1" points="217.7,152.5 214.1,152.5 214.1,175.1 228.9,175.1 228.9,171.6 217.7,171.6 				"/>
				<polygon class="st1" points="238.9,165.5 249.1,165.5 249.1,162 238.9,162 238.9,156 250.3,156 250.3,152.5 235.3,152.5 
					235.3,175.1 250.7,175.1 250.7,171.6 238.9,171.6 				"/>
				<path class="st1" d="M271.4,164.8c0.6-0.7,1.1-1.5,1.3-2.4c0.3-0.9,0.4-1.8,0.4-2.7c0-1.2-0.2-2.2-0.6-3.1
					c-0.4-0.9-1-1.7-1.7-2.3c-0.7-0.6-1.6-1.1-2.6-1.4c-1-0.3-2.2-0.5-3.4-0.5h-6.4v22.6h3.6v-7.9h3.3c0.1,0,0.2,0,0.4,0l5.1,7.9
					h4.2l-5.5-8.8C270.2,165.9,270.9,165.4,271.4,164.8z M262,156h3.4c0.8,0,1.4,0.1,2,0.4c0.5,0.3,0.9,0.6,1.2,1
					c0.3,0.4,0.5,0.8,0.6,1.3c0.1,0.4,0.2,0.9,0.2,1.2c0,0.4-0.1,0.8-0.2,1.3c-0.1,0.4-0.4,0.9-0.7,1.3c-0.3,0.4-0.7,0.7-1.3,1
					c-0.5,0.3-1.2,0.4-2,0.4H262V156z"/>
				<polygon class="st1" points="293.6,152.5 287.8,163.6 282,152.5 277.6,152.5 285.9,167.8 285.9,175.1 289.5,175.1 289.5,167.8 
					298,152.5 				"/>
			</g>
			<g>
				<path class="st1" d="M149.7,127.2c-34.6,0-62.8-28.2-62.8-62.8c0-34.6,28.2-62.8,62.8-62.8c34.6,0,62.8,28.2,62.8,62.8
					C212.5,99,184.3,127.2,149.7,127.2z M149.7,5.1c-32.7,0-59.3,26.6-59.3,59.3c0,32.7,26.6,59.3,59.3,59.3
					c32.7,0,59.3-26.6,59.3-59.3C209,31.7,182.4,5.1,149.7,5.1z"/>
			</g>
			<g>
				<path class="st2" d="M149.7,119.5c-30.4,0-55.1-24.7-55.1-55.1c0-30.4,24.7-55.1,55.1-55.1c30.4,0,55.1,24.7,55.1,55.1
					C204.8,94.8,180.1,119.5,149.7,119.5z M149.7,10.2c-29.9,0-54.2,24.3-54.2,54.2s24.3,54.2,54.2,54.2c29.9,0,54.2-24.3,54.2-54.2
					S179.6,10.2,149.7,10.2z"/>
			</g>
			<g>
				<path class="st3" d="M161.4,88c-1,0.9-2.1,1.5-3.3,2.1l-2.5,1.1h2.7c3.2,0,7.2-1.2,9.1-2.8l0.2-0.2V66.5h-6.2V88z"/>
				<path class="st0" d="M173.5,39.6l0.4,0.5l4.7-3.7l-0.5-0.5c-4.7-4.2-10.3-6.6-17.1-7.4l-3.7-0.4l3.4,1.6
					C165.7,31.9,170,35.3,173.5,39.6z"/>
				<path class="st3" d="M129.3,86.5c-4.3-6.6-6.5-14-6.5-21.9c0.5-10.4,5.2-19.6,12.9-25.3c4.1-3,8.6-4.4,13.5-4.4
					c6.5,0,12.3,3.3,17.6,10.1l0.4,0.5l5-4.2l-0.4-0.5c-7.3-7.9-14.9-11.9-22.6-11.9c-6.2,0-11.8,1.8-16.9,5.4
					c-5,3.5-9,8.1-11.7,13.5c-2.8,5.5-4.1,11-4.1,16.8c0,12.4,5,23.4,13.7,30.2c4.5,3.4,9.7,5.2,15.4,5.2h5l-4.9-1.2
					C139.2,97.2,133.7,93,129.3,86.5z"/>
				<path class="st0" d="M171.1,88.8c-3.4,2.9-7.5,4.4-12.5,4.4c-4.8,0-9.2-1.4-13.2-4.2c-4-2.9-7.2-6.6-9.2-10.8
					c-2.1-4.4-3.2-9-3.2-13.6c0-5.7,1.5-11,4.4-15.7c3.2-5.2,6.3-8,11.3-10.1l4.5-1.9l-4.9,0.8c-6.6,1-11.1,3.7-15.3,8.8
					c-4.2,5.1-6.3,11.2-6.3,18.1c0,9,3.1,17,9.3,23.9c6.2,6.9,13.8,10.5,22.6,10.5c3.5,0,6.9-0.7,10.5-2c3.6-1.5,6.2-3.2,8.1-5.4
					l0.1-0.2V66.5h-6.2L171.1,88.8z"/>
			</g>
		</g>
	</g>
	<g>
		<path class="st1" d="M27.3,189.4c-0.6-0.3-1.3-0.4-2.1-0.4h-3v11.4h1.5v-4.2h1.7c0.7,0,1.3-0.1,1.8-0.3c0.5-0.2,0.9-0.5,1.2-0.8
			c0.3-0.4,0.5-0.7,0.7-1.2c0.1-0.4,0.2-0.9,0.2-1.3c0-0.7-0.2-1.4-0.5-1.9C28.3,190.1,27.9,189.7,27.3,189.4z M27.5,193.2
			c-0.1,0.3-0.2,0.5-0.4,0.7c-0.2,0.2-0.4,0.4-0.7,0.6c-0.3,0.1-0.7,0.2-1.1,0.2h-1.7v-4.3h1.8c0.4,0,0.8,0.1,1,0.2
			c0.3,0.1,0.5,0.3,0.7,0.5c0.2,0.2,0.3,0.4,0.4,0.7c0.1,0.2,0.1,0.5,0.1,0.7C27.6,192.7,27.6,193,27.5,193.2z"/>
		<path class="st1" d="M38.7,195c0.3-0.4,0.5-0.7,0.7-1.2c0.1-0.4,0.2-0.9,0.2-1.3c0-0.6-0.1-1.1-0.3-1.5c-0.2-0.4-0.5-0.8-0.9-1.1
			c-0.4-0.3-0.8-0.5-1.3-0.7c-0.5-0.2-1-0.2-1.6-0.2h-3v11.4H34v-4.2h1.7c0.1,0,0.2,0,0.4,0l2.7,4.2h1.8l-2.9-4.6
			C38.1,195.6,38.4,195.3,38.7,195z M35.7,194.7H34v-4.3h1.8c0.4,0,0.7,0.1,1,0.2c0.3,0.1,0.5,0.3,0.7,0.5c0.2,0.2,0.3,0.4,0.4,0.7
			c0.1,0.2,0.1,0.5,0.1,0.7c0,0.2,0,0.5-0.1,0.7c-0.1,0.3-0.2,0.5-0.4,0.7c-0.2,0.2-0.4,0.4-0.7,0.5
			C36.5,194.6,36.1,194.7,35.7,194.7z"/>
		<polygon class="st1" points="45.4,195.4 50.7,195.4 50.7,193.9 45.4,193.9 45.4,190.4 51.3,190.4 51.3,189 43.9,189 43.9,200.4 
			51.5,200.4 51.5,198.9 45.4,198.9 		"/>
		<polygon class="st1" points="60.8,196.6 55.2,188.6 55.2,188.6 55.2,200.4 56.7,200.4 56.7,193.2 60.8,198.9 60.8,198.9 65,193 
			65,200.4 66.5,200.4 66.5,188.6 66.5,188.6 		"/>
		<rect x="70.8" y="189" class="st1" width="1.5" height="11.4"/>
		<path class="st1" d="M83.6,196.3c0,0.5-0.1,1-0.4,1.4c-0.2,0.4-0.6,0.7-1,1c-0.4,0.2-0.9,0.3-1.4,0.3c-0.5,0-1-0.1-1.4-0.3
			c-0.4-0.2-0.7-0.5-1-1c-0.2-0.4-0.4-0.9-0.4-1.4V189h-1.5v7.4c0,0.8,0.2,1.6,0.6,2.2c0.4,0.6,0.9,1.1,1.5,1.4
			c0.6,0.3,1.4,0.5,2.2,0.5c0.8,0,1.5-0.2,2.2-0.5c0.6-0.3,1.2-0.8,1.5-1.4c0.4-0.6,0.6-1.3,0.6-2.2V189h-1.5V196.3z"/>
		<polygon class="st1" points="94.8,196.6 89.2,188.6 89.2,188.6 89.2,200.4 90.7,200.4 90.7,193.2 94.8,198.9 94.8,198.9 99,193 
			99,200.4 100.5,200.4 100.5,188.6 100.5,188.6 		"/>
		<path class="st1" d="M115.9,196.3h2.3v2.3c-0.3,0.1-0.6,0.3-1,0.3c-0.4,0.1-0.8,0.1-1.2,0.1c-0.7,0-1.2-0.1-1.8-0.3
			c-0.5-0.2-1-0.5-1.4-0.9c-0.4-0.4-0.7-0.8-0.9-1.3c-0.2-0.5-0.3-1.1-0.3-1.7c0-0.7,0.1-1.3,0.3-1.8c0.2-0.5,0.5-1,0.9-1.4
			c0.4-0.4,0.9-0.7,1.4-0.9c0.5-0.2,1.2-0.3,1.8-0.3c0.3,0,0.6,0,0.9,0.1s0.6,0.2,1,0.3c0.3,0.1,0.6,0.2,0.8,0.3l0.5-1.4
			c-0.4-0.2-0.9-0.4-1.5-0.6c-0.6-0.2-1.2-0.2-1.8-0.2c-0.8,0-1.5,0.1-2.2,0.4c-0.7,0.3-1.3,0.7-1.9,1.2c-0.5,0.5-1,1.2-1.3,1.9
			c-0.3,0.8-0.5,1.6-0.5,2.5c0,0.8,0.1,1.5,0.4,2.2c0.3,0.7,0.7,1.3,1.2,1.8c0.5,0.5,1.1,0.9,1.9,1.2c0.7,0.3,1.6,0.4,2.5,0.4
			c0.3,0,0.7,0,1-0.1c0.4-0.1,0.7-0.1,1.1-0.3c0.3-0.1,0.7-0.2,0.9-0.4c0.3-0.1,0.5-0.3,0.7-0.4v-4.6h-3.8V196.3z"/>
		<path class="st1" d="M132.9,190.6c-0.5-0.5-1.2-1-1.9-1.3c-0.7-0.3-1.4-0.5-2.2-0.5c-0.8,0-1.6,0.2-2.3,0.5
			c-0.7,0.3-1.3,0.7-1.9,1.3c-0.5,0.5-1,1.2-1.3,1.9c-0.3,0.7-0.4,1.4-0.4,2.2c0,0.8,0.1,1.6,0.4,2.3c0.3,0.7,0.7,1.3,1.3,1.8
			c0.5,0.5,1.2,0.9,1.9,1.2c0.7,0.3,1.5,0.4,2.3,0.4c0.8,0,1.5-0.1,2.2-0.4c0.7-0.3,1.3-0.7,1.9-1.2c0.5-0.5,1-1.1,1.3-1.9
			c0.3-0.7,0.5-1.5,0.5-2.3c0-0.8-0.2-1.5-0.5-2.2C133.9,191.8,133.4,191.1,132.9,190.6z M132.7,196.4c-0.2,0.5-0.5,1-0.9,1.4
			c-0.4,0.4-0.8,0.7-1.3,0.9c-0.5,0.2-1.1,0.3-1.7,0.3c-0.6,0-1.2-0.1-1.7-0.3c-0.5-0.2-1-0.5-1.4-0.9c-0.4-0.4-0.7-0.9-0.9-1.4
			c-0.2-0.5-0.3-1.1-0.3-1.7c0-0.6,0.1-1.2,0.3-1.7c0.2-0.5,0.5-1,0.9-1.4c0.4-0.4,0.8-0.7,1.4-0.9c0.5-0.2,1.1-0.3,1.7-0.3
			c0.6,0,1.1,0.1,1.7,0.3c0.5,0.2,1,0.5,1.4,0.9c0.4,0.4,0.7,0.9,0.9,1.4c0.2,0.5,0.3,1.1,0.3,1.7
			C133,195.3,132.9,195.9,132.7,196.4z"/>
		<polygon class="st1" points="139.7,189 138.2,189 138.2,200.4 145.5,200.4 145.5,198.9 139.7,198.9 		"/>
		<polygon class="st1" points="149,200.4 150.6,200.4 150.6,195.5 155.1,195.5 155.1,194.1 150.6,194.1 150.6,190.4 155.8,190.4 
			155.8,189 149,189 		"/>
		<polygon class="st1" points="171,196.6 165.4,188.6 165.3,188.6 165.3,200.4 166.8,200.4 166.8,193.2 170.9,198.9 170.9,198.9 
			175.1,193 175.1,200.4 176.7,200.4 176.7,188.6 176.6,188.6 		"/>
		<polygon class="st1" points="182.5,195.4 187.7,195.4 187.7,193.9 182.5,193.9 182.5,190.4 188.4,190.4 188.4,189 181,189 
			181,200.4 188.6,200.4 188.6,198.9 182.5,198.9 		"/>
		<polygon class="st1" points="197.9,196.6 192.3,188.6 192.3,188.6 192.3,200.4 193.7,200.4 193.7,193.2 197.8,198.9 197.9,198.9 
			202.1,193 202.1,200.4 203.6,200.4 203.6,188.6 203.6,188.6 		"/>
		<path class="st1" d="M213.1,194.5c0,0-0.1,0-0.1,0c0,0,0,0,0,0c0.5-0.3,0.9-0.6,1.1-1c0.3-0.4,0.4-1,0.4-1.6c0-1-0.3-1.7-1-2.2
			c-0.7-0.5-1.6-0.7-2.7-0.7h-2.9v11.4h3.4c0.5,0,1-0.1,1.4-0.2c0.5-0.1,0.9-0.3,1.2-0.6c0.4-0.3,0.6-0.6,0.9-1
			c0.2-0.4,0.3-0.9,0.3-1.5c0-0.6-0.2-1.2-0.5-1.6C214.2,195.1,213.7,194.8,213.1,194.5z M209.4,190.4h1.5c0.6,0,1.1,0.1,1.5,0.4
			c0.4,0.3,0.6,0.7,0.6,1.3c0,0.5-0.1,0.9-0.4,1.3c-0.3,0.4-0.7,0.5-1.4,0.5h-1.7V190.4z M213.2,198.2c-0.2,0.3-0.5,0.5-0.8,0.6
			c-0.4,0.1-0.7,0.2-1.2,0.2h-1.8v-3.5h1.7c0.4,0,0.8,0.1,1.1,0.2c0.4,0.1,0.7,0.3,0.9,0.5c0.2,0.3,0.4,0.6,0.4,1
			C213.5,197.6,213.4,197.9,213.2,198.2z"/>
		<polygon class="st1" points="220.2,195.4 225.4,195.4 225.4,193.9 220.2,193.9 220.2,190.4 226,190.4 226,189 218.6,189 
			218.6,200.4 226.3,200.4 226.3,198.9 220.2,198.9 		"/>
		<path class="st1" d="M236.1,195c0.3-0.4,0.5-0.7,0.7-1.2c0.1-0.4,0.2-0.9,0.2-1.3c0-0.6-0.1-1.1-0.3-1.5c-0.2-0.4-0.5-0.8-0.9-1.1
			c-0.4-0.3-0.8-0.5-1.3-0.7c-0.5-0.2-1-0.2-1.6-0.2h-3v11.4h1.5v-4.2h1.7c0.1,0,0.2,0,0.4,0l2.7,4.2h1.8l-2.9-4.6
			C235.5,195.6,235.9,195.3,236.1,195z M233.1,194.7h-1.7v-4.3h1.8c0.4,0,0.7,0.1,1,0.2c0.3,0.1,0.5,0.3,0.7,0.5
			c0.2,0.2,0.3,0.4,0.4,0.7c0.1,0.2,0.1,0.5,0.1,0.7c0,0.2,0,0.5-0.1,0.7c-0.1,0.3-0.2,0.5-0.4,0.7c-0.2,0.2-0.4,0.4-0.7,0.5
			C233.9,194.6,233.6,194.7,233.1,194.7z"/>
		<path class="st1" d="M247,195c-0.3-0.3-0.6-0.5-0.9-0.6c-0.3-0.2-0.7-0.3-1.1-0.5c-0.4-0.2-0.8-0.3-1.2-0.5
			c-0.4-0.2-0.7-0.4-0.9-0.6c-0.2-0.2-0.3-0.5-0.3-0.9c0-0.5,0.2-0.9,0.5-1.1c0.4-0.3,0.8-0.4,1.5-0.4c0.4,0,0.9,0.1,1.4,0.2
			c0.5,0.1,0.9,0.3,1.3,0.5l0.6-1.2c-0.4-0.3-0.9-0.5-1.5-0.7c-0.6-0.2-1.2-0.3-1.9-0.3c-0.7,0-1.2,0.2-1.7,0.4
			c-0.5,0.3-0.9,0.6-1.2,1.1c-0.3,0.4-0.4,1-0.4,1.6c0,0.5,0.1,0.9,0.3,1.3c0.2,0.3,0.4,0.6,0.8,0.9c0.3,0.2,0.7,0.4,1,0.6
			c0.4,0.2,0.7,0.3,1.1,0.4c0.4,0.1,0.7,0.3,1.1,0.5c0.3,0.2,0.6,0.4,0.8,0.7c0.2,0.3,0.3,0.6,0.3,1c0,0.5-0.1,0.8-0.3,1.1
			c-0.2,0.3-0.5,0.5-0.9,0.6c-0.4,0.1-0.7,0.2-1.1,0.2c-0.3,0-0.7,0-1-0.2c-0.4-0.1-0.7-0.2-1-0.4c-0.3-0.2-0.6-0.3-0.9-0.5
			l-0.7,1.2c0.3,0.2,0.7,0.4,1,0.6c0.4,0.2,0.8,0.3,1.3,0.4c0.5,0.1,0.9,0.2,1.4,0.2c0.8,0,1.4-0.1,2-0.4c0.6-0.3,1-0.7,1.3-1.2
			c0.3-0.5,0.4-1,0.4-1.6c0-0.5-0.1-1-0.2-1.4C247.5,195.5,247.3,195.2,247,195z"/>
		<polygon class="st1" points="259,193.9 253.1,193.9 253.1,189 251.5,189 251.5,200.4 253.1,200.4 253.1,195.4 259,195.4 
			259,200.4 260.5,200.4 260.5,189 259,189 		"/>
		<rect x="264.8" y="189" class="st1" width="1.5" height="11.4"/>
		<path class="st1" d="M277.2,190.6c-0.3-0.5-0.8-0.9-1.4-1.2c-0.6-0.3-1.3-0.4-2.1-0.4h-3v11.4h1.5v-4.2h1.7c0.7,0,1.3-0.1,1.8-0.3
			c0.5-0.2,0.9-0.5,1.2-0.8c0.3-0.4,0.5-0.7,0.7-1.2c0.1-0.4,0.2-0.9,0.2-1.3C277.7,191.8,277.5,191.1,277.2,190.6z M276,193.2
			c-0.1,0.3-0.2,0.5-0.4,0.7c-0.2,0.2-0.4,0.4-0.7,0.6c-0.3,0.1-0.7,0.2-1.1,0.2h-1.7v-4.3h1.8c0.4,0,0.8,0.1,1,0.2
			c0.3,0.1,0.5,0.3,0.7,0.5c0.2,0.2,0.3,0.4,0.4,0.7c0.1,0.2,0.1,0.5,0.1,0.7C276.2,192.7,276.1,193,276,193.2z"/>
	</g>
</g>
</svg>
