<svg width="6" height="10" viewBox="0 0 6 10" fill="none" xmlns="http://www.w3.org/2000/svg">
<path d="M5.42746 0.937082C5.48698 0.996606 5.51674 1.06506 5.51674 1.14244C5.51674 1.21982 5.48698 1.28827 5.42746 1.3478L1.91853 4.85672L5.42746 8.36565C5.48698 8.42518 5.51674 8.49363 5.51674 8.57101C5.51674 8.64839 5.48698 8.71684 5.42746 8.77637L4.98103 9.2228C4.9215 9.28232 4.85305 9.31208 4.77567 9.31208C4.69829 9.31208 4.62984 9.28232 4.57031 9.2228L0.409599 5.06208C0.350075 5.00256 0.320312 4.93411 0.320312 4.85672C0.320312 4.77934 0.350075 4.71089 0.409599 4.65137L4.57031 0.490653C4.62984 0.431129 4.69829 0.401367 4.77567 0.401367C4.85305 0.401367 4.9215 0.431129 4.98103 0.490653L5.42746 0.937082Z" fill="#333333"/>
</svg>
