<svg width="10" height="10" viewBox="0 0 10 10" fill="none" xmlns="http://www.w3.org/2000/svg">
<path d="M5.92746 8.36565C5.98698 8.42518 6.01674 8.49363 6.01674 8.57101C6.01674 8.64839 5.98698 8.71684 5.92746 8.77637L5.48103 9.2228C5.4215 9.28232 5.35305 9.31208 5.27567 9.31208C5.19829 9.31208 5.12984 9.28232 5.07031 9.2228L0.909598 5.06208C0.850074 5.00256 0.820312 4.93411 0.820312 4.85672C0.820312 4.77934 0.850074 4.71089 0.909598 4.65137L5.07031 0.490653C5.12984 0.431129 5.19829 0.401367 5.27567 0.401367C5.35305 0.401367 5.4215 0.431129 5.48103 0.490653L5.92746 0.937082C5.98698 0.996606 6.01674 1.06506 6.01674 1.14244C6.01674 1.21982 5.98698 1.28827 5.92746 1.3478L2.41853 4.85672L5.92746 8.36565ZM9.35603 8.36565C9.41555 8.42518 9.44531 8.49363 9.44531 8.57101C9.44531 8.64839 9.41555 8.71684 9.35603 8.77637L8.9096 9.2228C8.85007 9.28232 8.78162 9.31208 8.70424 9.31208C8.62686 9.31208 8.55841 9.28232 8.49888 9.2228L4.33817 5.06208C4.27865 5.00256 4.24888 4.93411 4.24888 4.85672C4.24888 4.77934 4.27865 4.71089 4.33817 4.65137L8.49888 0.490653C8.55841 0.431129 8.62686 0.401367 8.70424 0.401367C8.78162 0.401367 8.85007 0.431129 8.9096 0.490653L9.35603 0.937082C9.41555 0.996606 9.44531 1.06506 9.44531 1.14244C9.44531 1.21982 9.41555 1.28827 9.35603 1.3478L5.8471 4.85672L9.35603 8.36565Z" fill="#333333"/>
</svg>
