<svg width="10" height="10" viewBox="0 0 10 10" fill="none" xmlns="http://www.w3.org/2000/svg">
<path d="M5.66379 4.65137C5.72331 4.71089 5.75308 4.77934 5.75308 4.85672C5.75308 4.93411 5.72331 5.00256 5.66379 5.06208L1.50308 9.2228C1.44356 9.28232 1.37511 9.31208 1.29773 9.31208C1.22035 9.31208 1.1519 9.28232 1.09238 9.2228L0.645935 8.77637C0.586411 8.71684 0.556641 8.64839 0.556641 8.57101C0.556641 8.49363 0.586411 8.42518 0.645935 8.36565L4.15488 4.85672L0.645935 1.3478C0.586411 1.28827 0.556641 1.21982 0.556641 1.14244C0.556641 1.06506 0.586411 0.996606 0.645935 0.937082L1.09238 0.490653C1.1519 0.431129 1.22035 0.401367 1.29773 0.401367C1.37511 0.401367 1.44356 0.431129 1.50308 0.490653L5.66379 4.65137ZM9.09238 4.65137C9.1519 4.71089 9.18164 4.77934 9.18164 4.85672C9.18164 4.93411 9.1519 5.00256 9.09238 5.06208L4.93164 9.2228C4.87212 9.28232 4.80367 9.31208 4.72629 9.31208C4.64891 9.31208 4.58046 9.28232 4.52094 9.2228L4.07452 8.77637C4.015 8.71684 3.98523 8.64839 3.98523 8.57101C3.98523 8.49363 4.015 8.42518 4.07452 8.36565L7.58344 4.85672L4.07452 1.3478C4.015 1.28827 3.98523 1.21982 3.98523 1.14244C3.98523 1.06506 4.015 0.996606 4.07452 0.937082L4.52094 0.490653C4.58046 0.431129 4.64891 0.401367 4.72629 0.401367C4.80367 0.401367 4.87212 0.431129 4.93164 0.490653L9.09238 4.65137Z" fill="#333333"/>
</svg>
