<svg width="6" height="10" viewBox="0 0 6 10" fill="none" xmlns="http://www.w3.org/2000/svg">
<path d="M5.58371 4.65137C5.64323 4.71089 5.673 4.77934 5.673 4.85672C5.673 4.93411 5.64323 5.00256 5.58371 5.06208L1.423 9.2228C1.36348 9.28232 1.29503 9.31208 1.21765 9.31208C1.14027 9.31208 1.07182 9.28232 1.0123 9.2228L0.565857 8.77637C0.506333 8.71684 0.476562 8.64839 0.476562 8.57101C0.476562 8.49363 0.506333 8.42518 0.565857 8.36565L4.0748 4.85672L0.565857 1.3478C0.506333 1.28827 0.476562 1.21982 0.476562 1.14244C0.476562 1.06506 0.506333 0.996606 0.565857 0.937082L1.0123 0.490653C1.07182 0.431129 1.14027 0.401367 1.21765 0.401367C1.29503 0.401367 1.36348 0.431129 1.423 0.490653L5.58371 4.65137Z" fill="#333333"/>
</svg>
