<?xml version="1.0" encoding="utf-8"?>
<!-- Generator: Adobe Illustrator 28.1.0, SVG Export Plug-In . SVG Version: 6.00 Build 0)  -->
<svg version="1.1" id="레이어_1" xmlns="http://www.w3.org/2000/svg" xmlns:xlink="http://www.w3.org/1999/xlink" x="0px"
	 y="0px" viewBox="0 0 11.1 6.5" style="enable-background:new 0 0 11.1 6.5;" xml:space="preserve">
<style type="text/css">
	.st0{fill:#323333;}
</style>
<path class="st0" d="M11,0.7c0.1,0.1,0.1,0.2,0.1,0.3s0,0.2-0.1,0.3L5.8,6.4c0,0.1-0.1,0.1-0.2,0.1s-0.2,0-0.3-0.1L0.1,1.2
	C0,1.1,0,1,0,0.9s0-0.2,0.1-0.3L0.7,0c0,0,0.1,0,0.2,0s0.2,0,0.3,0.1l4.4,4.4L10,0.1C10,0,10.1,0,10.2,0c0.1,0,0.2,0,0.3,0.1L11,0.7
	z"/>
</svg>
