<?xml version="1.0" encoding="utf-8"?>
<!-- Generator: Adobe Illustrator 28.1.0, SVG Export Plug-In . SVG Version: 6.00 Build 0)  -->
<svg version="1.1" id="레이어_1" xmlns="http://www.w3.org/2000/svg" xmlns:xlink="http://www.w3.org/1999/xlink" x="0px"
	 y="0px" viewBox="0 0 14 14" style="enable-background:new 0 0 14 14;" xml:space="preserve">
<style type="text/css">
	.st0{clip-path:url(#SVGID_00000107550042959838824430000001022520953745916040_);}
	.st1{fill:#ABAAAA;}
</style>
<g>
	<defs>
		<rect id="SVGID_1_" width="14" height="14"/>
	</defs>
	<clipPath id="SVGID_00000179616021688418423370000016818655252290893494_">
		<use xlink:href="#SVGID_1_"  style="overflow:visible;"/>
	</clipPath>
	<g style="clip-path:url(#SVGID_00000179616021688418423370000016818655252290893494_);">
		<path class="st1" d="M7,4.3c0.3,0,0.6-0.3,0.6-0.6S7.3,3.1,7,3.1c-0.3,0-0.6,0.3-0.6,0.6S6.7,4.3,7,4.3z"/>
		<path class="st1" d="M8.3,10H7.4V5.3H6.1c-0.1,0-0.2,0-0.3,0.1C5.7,5.5,5.7,5.6,5.7,5.7s0,0.2,0.1,0.3C5.9,6.1,6,6.2,6.1,6.2h0.4
			V10H5.7c-0.1,0-0.2,0-0.3,0.1c-0.1,0.1-0.1,0.2-0.1,0.3c0,0.1,0,0.2,0.1,0.3c0.1,0.1,0.2,0.1,0.3,0.1h2.6c0.1,0,0.2,0,0.3-0.1
			c0.1-0.1,0.1-0.2,0.1-0.3c0-0.1,0-0.2-0.1-0.3C8.5,10.1,8.4,10,8.3,10z"/>
		<path class="st1" d="M7,13.9c-1.4,0-2.7-0.4-3.8-1.2C2,12,1.1,10.9,0.6,9.6C0.1,8.4,0,7,0.2,5.7c0.3-1.3,0.9-2.6,1.9-3.5
			s2.2-1.6,3.5-1.9C7,0,8.4,0.1,9.6,0.6C10.9,1.1,12,2,12.7,3.2c0.8,1.1,1.2,2.5,1.2,3.8c0,1.8-0.7,3.6-2,4.9
			C10.6,13.2,8.8,13.9,7,13.9z M7,1C5.8,1,4.6,1.3,3.6,2c-1,0.7-1.8,1.6-2.2,2.7C1,5.8,0.8,7,1.1,8.2c0.2,1.2,0.8,2.3,1.7,3.1
			c0.8,0.8,1.9,1.4,3.1,1.7C7,13.2,8.2,13,9.3,12.6c1.1-0.5,2.1-1.2,2.7-2.2c0.7-1,1-2.2,1-3.4c0-1.6-0.6-3.1-1.8-4.3
			C10.1,1.6,8.6,1,7,1z"/>
	</g>
</g>
</svg>
